<svg xmlns="http://www.w3.org/2000/svg" width="40.714" height="40.714" viewBox="0 0 40.714 40.714">
  <path id="close" d="M-1377,556.358A20.354,20.354,0,0,1-1356.643,536a20.354,20.354,0,0,1,20.357,20.357,20.354,20.354,0,0,1-20.357,20.357A20.354,20.354,0,0,1-1377,556.358Zm7.9-12.46a17.5,17.5,0,0,0-5.158,12.46,17.5,17.5,0,0,0,5.158,12.459,17.5,17.5,0,0,0,12.459,5.158,17.5,17.5,0,0,0,12.459-5.158,17.5,17.5,0,0,0,5.158-12.459,17.5,17.5,0,0,0-5.158-12.46,17.5,17.5,0,0,0-12.459-5.158A17.5,17.5,0,0,0-1369.1,543.9Zm5.09,19.829a1.512,1.512,0,0,1,0-2.212l5.158-5.157-5.158-5.158a1.511,1.511,0,0,1,0-2.212,1.5,1.5,0,0,1,2.211,0l5.158,5.158,5.158-5.158a1.572,1.572,0,0,1,2.212,0,1.572,1.572,0,0,1,0,2.212l-5.158,5.158,5.158,5.157a1.554,1.554,0,0,1,0,2.212,1.572,1.572,0,0,1-2.212,0l-5.158-5.158-5.158,5.158a1.564,1.564,0,0,1-1.108.462A1.553,1.553,0,0,1-1364.012,563.727Z" transform="translate(1377 -536)" fill="#fff"/>
</svg>
