<svg xmlns="http://www.w3.org/2000/svg" width="13.211" height="15.003" viewBox="0 0 13.211 15.003">
  <path id="favicon" d="M40.195,71.183a2.593,2.593,0,0,1-.117-1.058,1.2,1.2,0,0,1-.137-.421c0-.1,0-.2-.009-.3a1.1,1.1,0,0,0-.03-.221.511.511,0,0,1-.012-.406.871.871,0,0,0-.13-.438c-.195-.463-.291-.956-.448-1.43a.771.771,0,0,0-.023-.15,1.63,1.63,0,0,1-.136-.666c-.091-.206-.118-.432-.19-.641a8.411,8.411,0,0,0-.579-2.068,6.522,6.522,0,0,1-.3-1.347c-.059-.279-.132-.554-.213-.827v0c-.1-.256-.136-.533-.225-.793l0,0c-.157-.155.054-.409-.148-.553l-.539-1.364a.633.633,0,0,0-.792-.033,4,4,0,0,0-.351,1.158c-.076.262-.116.534-.218.789-.14.083-.08.226-.1.343a7.087,7.087,0,0,0-.328,1.39l.008-.008c-.2.132.008.378-.147.521s-.081.323-.112.486c-.135.161.027.385-.115.546a6.121,6.121,0,0,0-.331,1.384c-.176.2.087.623-.353.686-.132-.287-.122-.613-.245-.9l0,.006a13.026,13.026,0,0,0-.458-1.712l0,.006a3.12,3.12,0,0,0-.246-.8l-1.108-3.865c-.262-.349-.524-.348-.787,0a7.581,7.581,0,0,0-.346,1.467c-.126.178.013.4-.1.582l.006-.007c-.108.415-.118.846-.227,1.26-.161.167-.006.4-.111.573l.008-.009c-.186.16-.007.4-.126.574l.007-.008a3.027,3.027,0,0,0-.23.922l.009-.01c-.186.163-.013.4-.123.578l.009-.01c-.182.166-.022.4-.114.583-.194.142.011.392-.143.545-.191.115-.068.3-.1.448-.164.215,0,.483-.111.705l.009-.009a9.764,9.764,0,0,0-.249,1.02l0,0a3.181,3.181,0,0,0-.33,1.074l.007.037L29,68.826a.271.271,0,0,0-.073.217c.137.339-.141.571-.221.854a4.222,4.222,0,0,0,0,.516c.01.228.235.452.017.685a.5.5,0,0,0-.039.233.613.613,0,0,0,.046.159c.162.258.23.588.556.718a.511.511,0,0,0,.555-.155.622.622,0,0,0,.09-.313c.016-.115-.041-.241.05-.345a.53.53,0,0,0,.108-.075c.011-.013.019-.028.029-.04.039-.2.091-.406.145-.607a.421.421,0,0,1,0-.361.129.129,0,0,1-.029-.128c.13-.468.1-.577.217-.977a.152.152,0,0,1,.063-.08,12.545,12.545,0,0,1,.29-1.386.139.139,0,0,1,.075-.083,1.346,1.346,0,0,1,0-.492c.343-1.46.639-2.93.939-4.48.478,1.6.767,3.172,1.243,4.686a9.152,9.152,0,0,0,.895,2.613c.7.221.99.05,1.117-.8.289-1.93.988-3.755,1.406-5.65a.563.563,0,0,1,.23-.438,4.461,4.461,0,0,1,.278,1.133c.036.292.075.583.121.871a.149.149,0,0,1,.038.058,5.673,5.673,0,0,1,.224,1.126,5.587,5.587,0,0,0,.32.836,1.312,1.312,0,0,1,.138.6c0,.048,0,.095-.006.14a1.82,1.82,0,0,1,.08.857.183.183,0,0,1,.113.1c.048.128.076.2.093.25a.583.583,0,0,1,.213.3c.242.615.091,1.345.558,1.894a1.568,1.568,0,0,0,.069.149c.233.368.293.949.963.776a.46.46,0,0,0,.183-.177,1.229,1.229,0,0,0,.1-.829" transform="translate(-27.516 -57.732)" fill="#600b50" stroke="rgba(0,0,0,0)" stroke-miterlimit="10" stroke-width="1"/>
</svg>
