<svg xmlns="http://www.w3.org/2000/svg" width="174.412" height="26.18" viewBox="0 0 174.412 26.18">
  <path id="moiras1" d="M103.488,23.615c0-.059,0-.117,0-.176,0-.005,0-.009,0-.014a.465.465,0,0,0-.014-.545c0-.057,0-.113,0-.17a.225.225,0,0,0,0-.125.239.239,0,0,0-.006-.027c-.014-.521-.022-1.043-.029-1.565a.208.208,0,0,0,.049-.134c0-.736-.054-1.47-.058-2.2a.216.216,0,0,0-.033-.114,15.757,15.757,0,0,0-.317-2.5c0-.013,0-.025,0-.038a1.409,1.409,0,0,0,.121-.306,2.554,2.554,0,0,0-.132-1.35,1.848,1.848,0,0,0-.143-.725c-.053-.259.175-.455.158-.707,0-.131,0-.262,0-.393-.007-.24-.01-.479,0-.718-.2-1.5.427-2.98.058-4.477a12.344,12.344,0,0,0-.24-3.8,4.27,4.27,0,0,1,.031-2.646c.274-.953.635-1.113,1.522-.547.193.295.481.282.763.271.059,0,.117,0,.175,0,.165,0,.33,0,.5,0A6.858,6.858,0,0,1,108.45.9c.038.172.158.172.277.172a.792.792,0,0,1,.093,0c.238.161.6.084.765.383a4.181,4.181,0,0,1,1.7,1.914l-.01-.009a3.083,3.083,0,0,1,.833,1.981,9.734,9.734,0,0,1,.235,1.145.644.644,0,0,1,.052.391,2.308,2.308,0,0,0-.249,1.067c-.048.3-.367.431-.426.721a8.223,8.223,0,0,0-.566,1.89.244.244,0,0,1-.088.251c-.511.4-.683.787-.031,1.219a1.1,1.1,0,0,1,.311.469c.128.166.3.307.293.543a.951.951,0,0,0,.228.438,1.192,1.192,0,0,0,.068.472c-.2.245.142.687.183.817a24.411,24.411,0,0,1,.931,4.625c.006.046.085.084.129.125a.992.992,0,0,1,.266.636,1.269,1.269,0,0,1-.027.686c.086.268.055.583.32.777a4.408,4.408,0,0,1,.338,1.068.669.669,0,0,1-.014.365c-.209.175.059.49-.191.653a.961.961,0,0,1-.2.144,1.9,1.9,0,0,1-.334.153,1.144,1.144,0,0,1-.366.049.772.772,0,0,1-.35-.1,3.152,3.152,0,0,1-.445-.562,1.708,1.708,0,0,1-.117-.2,3.148,3.148,0,0,0-.343-.607,2.748,2.748,0,0,1-.352-.629,1.119,1.119,0,0,1-.03-.491c.045-.363-.218-.651-.242-1a5.658,5.658,0,0,0-.154-.73,3.639,3.639,0,0,1-.058-.368,2.562,2.562,0,0,0-.122-.482c-.265-.59-.285-1.251-.547-1.84-.072-.242-.107-.493-.188-.733-.059-.2-.121-.4-.168-.6a2.752,2.752,0,0,0-.075-.723,1.368,1.368,0,0,0-.437-.562.932.932,0,0,1-.139-.328.779.779,0,0,0-.2-.4,5.821,5.821,0,0,0-.848-.407c-.69-.206-1.375-.657-2.082-.046a1.512,1.512,0,0,0-.041.353,5.015,5.015,0,0,0,.115.6.931.931,0,0,1-.055.5c-.283.284.237.3.174.5a6.405,6.405,0,0,0-.347,1.426,11.7,11.7,0,0,0-.067,1.912,4.208,4.208,0,0,1-.023.463,30.927,30.927,0,0,0-.265,3.671,7.8,7.8,0,0,0-.732,1.791,3.342,3.342,0,0,1-.309.253.412.412,0,0,0-.36.13.76.76,0,0,1-.368.266C103.62,24.815,103.643,23.926,103.488,23.615Zm4.72-13.526a.49.49,0,0,0,.331-.248c.139-.017.226-.082.148-.3l.014-.018a.239.239,0,0,0,.163-.168.453.453,0,0,1,.02-.078.23.23,0,0,0,0-.132c.006-.131.016-.263.033-.392a.365.365,0,0,0,.092-.283,2.492,2.492,0,0,0,.362-.938c-.049-.134-.027-.292-.108-.415a.411.411,0,0,0,.112-.456c-.418-.429.265-.973-.146-1.4.121-1.312-1.4-2.629-3.054-2.641-.453.1-.561.429-.559.837q.014,2.11.022,4.219a.843.843,0,0,0,.222.812,1.258,1.258,0,0,0,.04.224.24.24,0,0,0,.1.124c.017.348.125.671.448.777a.356.356,0,0,0,.1.014c.044.131.26.189.373.187a1.1,1.1,0,0,1,.22.029,1.262,1.262,0,0,0,.263.1.308.308,0,0,0,.041,0,.421.421,0,0,0,.444.155l.019-.007A.482.482,0,0,0,108.209,10.089ZM76.1,24.213c-.545-.063-.506-.563-.656-.919a1.136,1.136,0,0,1-.048-1.061.661.661,0,0,0-.088-.753c-.113-.2-.305-.354-.351-.591a2.362,2.362,0,0,1,.131-.794,20.358,20.358,0,0,0-.041-3.229c-.251-.621.131-1.2.145-1.809a.249.249,0,0,0,.24-.256,11.177,11.177,0,0,0-.17-1.438.283.283,0,0,0,.17-.212,18.68,18.68,0,0,0-.07-3.721.266.266,0,0,0-.156-.212,2.893,2.893,0,0,1,.022-.677,2.078,2.078,0,0,0-.111-.866c0-.046.008-.092.01-.139a.219.219,0,0,0,.059-.144V6.655a.219.219,0,0,0-.04-.127c.022-.082.045-.162.069-.243l.024-.112a15.4,15.4,0,0,0,.148-3.583c0-.065,0-.13,0-.2-.039-.584.562-.716.787-1.112a1.418,1.418,0,0,1,1.542.237,5.9,5.9,0,0,1,.276,1.352.323.323,0,0,0-.229.238,8.494,8.494,0,0,0,.014,1.942,1.6,1.6,0,0,0,.116.924l.011.082a.227.227,0,0,0,.044.084c-.009.486.023.971.051,1.457,0,0-.005,0-.007.006a2.2,2.2,0,0,0-.186,1.71c-.008.072-.011.144-.017.218a1.267,1.267,0,0,0-.026.316.206.206,0,0,0,.074.147,2.422,2.422,0,0,0-.014.769,3.06,3.06,0,0,0-.029.464,5.311,5.311,0,0,0,0,1.606c-.02.229-.032.463-.034.7a.219.219,0,0,0,.08.168,4.541,4.541,0,0,0-.074.967.219.219,0,0,0-.076.164v1.089a.237.237,0,0,0,.135.212,4.14,4.14,0,0,0-.079.6.214.214,0,0,0-.092.167,8.17,8.17,0,0,0,.1,1.134c0,.1,0,.193,0,.288q-.074.709-.175,1.413c-.271.292.184.32.189.513a.78.78,0,0,1,.056.239c.028.2-.277.466.133.578a.6.6,0,0,1,.024.388,9.92,9.92,0,0,0-1.11,2.2c-.145.307-.339.558-.691.558A.811.811,0,0,1,76.1,24.213Zm-75.092-.2c-.545-.218-.66-.77-.93-1.2A1.025,1.025,0,0,1,0,22.545a.84.84,0,0,1,.066-.39c.365-.39-.011-.764-.028-1.146a7.271,7.271,0,0,1,.007-.863c.134-.472.6-.859.369-1.426a.453.453,0,0,1,.122-.363L.59,18.32l-.012-.063a5.311,5.311,0,0,1,.551-1.795l-.006.008a16.3,16.3,0,0,1,.416-1.705l-.014.015c.193-.373-.089-.82.186-1.179.049-.251-.155-.557.164-.749.257-.255-.086-.673.239-.91.152-.3-.108-.687.179-.963.172-.292-.1-.678.186-.947a5.061,5.061,0,0,1,.385-1.538l-.013.014c.2-.287-.093-.683.2-.949.17-.3-.084-.676.183-.953.182-.692.2-1.414.38-2.107l-.01.012c.19-.3-.042-.674.168-.972a12.614,12.614,0,0,1,.579-2.452c.439-.581.878-.582,1.315,0l1.851,6.46a5.2,5.2,0,0,1,.412,1.334l-.007-.01a21.791,21.791,0,0,1,.766,2.86l-.008-.011c.206.483.191,1.028.41,1.508.734-.105.3-.815.59-1.147a10.251,10.251,0,0,1,.553-2.314c.236-.267-.035-.642.192-.912.052-.274-.094-.592.187-.813.256-.237-.076-.641.233-.862a11.809,11.809,0,0,1,.549-2.32c.037-.2-.064-.434.17-.573.169-.427.237-.881.364-1.319a6.719,6.719,0,0,1,.586-1.936,1.059,1.059,0,0,1,1.324.054q.45,1.141.9,2.28c.337.239-.015.664.248.923l0,.005c.148.436.2.9.376,1.327l0,0c.136.457.257.916.356,1.383a10.968,10.968,0,0,0,.5,2.252c.685,1.049.58,2.322.968,3.457.12.348.165.727.318,1.071a2.723,2.723,0,0,0,.227,1.112,1.388,1.388,0,0,1,.039.251c.262.793.422,1.617.748,2.39a1.455,1.455,0,0,1,.218.732.851.851,0,0,0,.021.68,1.83,1.83,0,0,1,.05.369c.008.167.006.334.014.5a1.992,1.992,0,0,0,.229.7,4.34,4.34,0,0,0,.2,1.768,2.058,2.058,0,0,1-.169,1.387.778.778,0,0,1-.305.3c-1.121.289-1.22-.682-1.61-1.3-.043-.081-.08-.165-.115-.248-.78-.917-.527-2.138-.932-3.165a.973.973,0,0,0-.356-.493c-.029-.089-.075-.2-.156-.417a.305.305,0,0,0-.188-.172,3.036,3.036,0,0,0-.133-1.432c.005-.076.008-.155.01-.235a2.191,2.191,0,0,0-.231-1.008,9.349,9.349,0,0,1-.535-1.4,9.471,9.471,0,0,0-.374-1.882.244.244,0,0,0-.064-.1c-.076-.482-.141-.969-.2-1.456a7.405,7.405,0,0,0-.464-1.894.941.941,0,0,0-.384.732c-.7,3.168-1.868,6.218-2.351,9.444-.212,1.417-.691,1.7-1.868,1.332-.9-1.315-1.035-2.9-1.495-4.367-.8-2.532-1.279-5.154-2.077-7.834-.5,2.591-1,5.048-1.57,7.488a2.24,2.24,0,0,0-.008.823.233.233,0,0,0-.126.139,20.929,20.929,0,0,0-.484,2.317.251.251,0,0,0-.105.133c-.2.669-.145.851-.363,1.633a.216.216,0,0,0,.049.214.7.7,0,0,0,0,.6c-.09.337-.178.675-.243,1.015-.017.022-.031.046-.05.067a.9.9,0,0,1-.18.126c-.152.175-.057.384-.083.577a1.034,1.034,0,0,1-.15.523.8.8,0,0,1-.634.3A1.207,1.207,0,0,1,1.008,24.012Zm134.457-.484a5.465,5.465,0,0,0-.249-1.119c-.026-.271-.026-.543-.03-.814,0-.226,0-.452,0-.677-.179-.72-.8-1.412-.152-2.189a3.694,3.694,0,0,0,.486-2.27,4.9,4.9,0,0,0,.539-2.516,2.844,2.844,0,0,1,.126-1.01,1.946,1.946,0,0,1,.12-.247c.469-1.654.714-3.357,1.115-5.024-.137-.525.318-.959.227-1.478a.451.451,0,0,1,.042-.24,2.034,2.034,0,0,0,.427-.729,6.993,6.993,0,0,1,.131-1.513,1.74,1.74,0,0,1,.423-.766c.065-.052.13-.1.2-.156,0-.314.257-.5.372-.763.145-.373.109-.811.4-1.13l-.01.008c.7-.837,1.081-.78,1.471.208.193.487.12,1.044.41,1.5q.278.851.557,1.7a1.463,1.463,0,0,1,.423.788c.046.274.32.365.46.563a8.534,8.534,0,0,1,.429,1.477c0,.264.007.526.011.79a.247.247,0,0,1,.132.181,2.187,2.187,0,0,0,.237.664c.1.312.042.666.258.947.229,1.442.762,2.821.892,4.284.027.08.048.162.069.243a10.946,10.946,0,0,1,.293,1.064,1.5,1.5,0,0,1,.17.673.816.816,0,0,0,.044.535,2.118,2.118,0,0,1,.17.437,3.123,3.123,0,0,0,.18,1.575,7.482,7.482,0,0,0,.264.946,3.137,3.137,0,0,0,.259.4c.113.214.135.46.241.677.2.2-.055.512.17.711a14.613,14.613,0,0,1,.311,1.574c-.268.356-.511.742-1,.846a1,1,0,0,1-.546-.085,14.967,14.967,0,0,1-1.316-1.905c-.337-.49-.475-1.088-.858-1.554a5.683,5.683,0,0,0-.431-2.563,7.082,7.082,0,0,1-.244-.67,2.646,2.646,0,0,1-.163-.313,4.261,4.261,0,0,1-.117-.464,2.76,2.76,0,0,1-.1-.483c.135-.662-.389-1.18-.408-1.808a1.391,1.391,0,0,1-.1-.506,9.481,9.481,0,0,0-.58-2.759c-.287-1.122-.584-2.248-.946-3.352a.542.542,0,0,1,.05-.559c-.184.175-.132.407-.122.629a50.222,50.222,0,0,1-.918,5.023c-.247,1.01-.4,2.038-.635,3.049-.06.274-.3.544,0,.819a1.035,1.035,0,0,1,.055.669c-.242.118-.167.286-.07.461.167.38-.47.494-.287.88a4.562,4.562,0,0,0-.724,2.588,1.046,1.046,0,0,1-.164.589c-.216.131-.026.31-.052.464a2.528,2.528,0,0,1-.3.792c-.115.224-.141.481-.258.7a1.087,1.087,0,0,1-.648.433q-.044,0-.088,0A.977.977,0,0,1,135.465,23.528Zm33.334.023a.944.944,0,0,0-1.035-.168c-.167-.115-.336-.224-.5-.341s-.33-.257-.489-.4c-.014-.012-.04-.009-.057-.017a.3.3,0,0,0-.15-.18,2.35,2.35,0,0,1-.593-.578,3.207,3.207,0,0,0-.414-.551,2.107,2.107,0,0,0-.275-.212.785.785,0,0,1-.533-.751c-.051-.174-.094-.352-.136-.53a.237.237,0,0,0,.015-.15,5.377,5.377,0,0,0-.2-.7,3.19,3.19,0,0,0-.432-1.21c0-.008,0-.016,0-.024a1.072,1.072,0,0,1,.161-.1,3.72,3.72,0,0,0,.249-1.118,1.642,1.642,0,0,1-.026-.2.246.246,0,0,0,.137-.212c0-.065.008-.13.011-.193a7.219,7.219,0,0,1,.137-.826c.022-.036.039-.072.064-.107l.177-.217,0,0,.009-.011a.346.346,0,0,0,.167-.065,3.069,3.069,0,0,0,.357-.352s0-.008.008-.014c.151-.018.3-.034.454-.045a3.6,3.6,0,0,0,.441.6,3.552,3.552,0,0,0,.155.607,2.156,2.156,0,0,0,.122,1,8.1,8.1,0,0,1,.046,1.288.867.867,0,0,0,.47.829.51.51,0,0,1,.155.368c-.055.687.461.981.91,1.319.356.334.647.1.942-.109.661.163,1-.032,1.25-.736a10.6,10.6,0,0,0,.394-4.351c-.539-2.071-2.389-3.028-3.8-4.308a11.219,11.219,0,0,1-2.446-3.908c-.115-.251.285-.423.126-.69a1.5,1.5,0,0,1,.012-.943c.016-.162.031-.323.047-.484.165-.4-.033-.833.148-1.227A3.634,3.634,0,0,1,166.934.491a3.914,3.914,0,0,1,4.1.381c.1.069.2.131.308.2a1.7,1.7,0,0,1,.567.574,2.507,2.507,0,0,1,.787,2.089,1.644,1.644,0,0,1,.013.941c-.059.271-.127.544-.185.808-.086.388-.41.373-.6.444-.288.106-.351-.241-.454-.46a3.77,3.77,0,0,1-.275-1.136c-.157-1.263-1.117-1.732-2.047-2.1-1-.4-1.839.3-1.978,1.473a10.506,10.506,0,0,0-.019,1.13,2.445,2.445,0,0,0,.005,1.391c.2,1.624,1.341,2.643,2.479,3.566,2.094,1.7,3.581,3.674,3.642,6.484a11.888,11.888,0,0,1,0,2.653L172.447,21a3.709,3.709,0,0,1-1.2,1.422,1.055,1.055,0,0,1-.3.233c-.4.112-.77.305-1.161.444a1.142,1.142,0,0,0-.428.2.91.91,0,0,1-.555.249ZM45.125,23.277c-.291-.105-.541-.3-.834-.4a2.9,2.9,0,0,1-.328-.19,4.415,4.415,0,0,1-.768-.569.606.606,0,0,1-.171-.177,1.289,1.289,0,0,0-.418-.883,4.584,4.584,0,0,0-.734-.823.7.7,0,0,1-.16-.181,1.487,1.487,0,0,1-.037-.588,1.08,1.08,0,0,0-.1-.66,1.083,1.083,0,0,1-.116-.59,1.226,1.226,0,0,0-.2-.829,1.638,1.638,0,0,1-.082-.248c.044-1.273-.54-2.515-.207-3.8a14.471,14.471,0,0,0-.132-1.462l-.319-.315a.859.859,0,0,1,.311-.6c.163-.626-.03-1.278.145-1.9-.228-.266.166-.5.039-.763.2-.877.005-1.778.158-2.657a.309.309,0,0,0,.04-.172c.232-.36-.059-.806.19-1.162A5.135,5.135,0,0,1,44.053.291a4.177,4.177,0,0,1,2.264.056l1.344.723a2.853,2.853,0,0,1,.941.976,6.147,6.147,0,0,1,.992,2.066,2.059,2.059,0,0,1,.193.535,3.834,3.834,0,0,0,.12.959,2.824,2.824,0,0,1,.076.535A2.568,2.568,0,0,0,50.549,7.8a.473.473,0,0,1,.033.241A11.264,11.264,0,0,1,50.6,9.549a5.164,5.164,0,0,1-.03,1.354,8.251,8.251,0,0,0-.014.857c.014.319.045.638.055.958a7.1,7.1,0,0,0,.005.958c0,.718-.043,1.437.005,2.154,0,.007-.009.014-.013.022a.159.159,0,0,0-.02.131c-.223.887.065,1.943-.076,2.857-.023.153-.047.313-.07.474a.27.27,0,0,0-.014.028c-.235.336-.181.752-.309,1.116-.095.268-.274.5-.363.77a1.432,1.432,0,0,1-.1.221c-.115.163-.228.329-.342.494a.29.29,0,0,0-.071.057.8.8,0,0,0-.115.2c-.011.014-.02.029-.032.042s-.029.03-.043.045c-.2,0-.392.092-.39.275,0,.039.013.074.015.111l-.186.192c-.031.032-.067.061-.1.093a.523.523,0,0,0-.377.133.63.63,0,0,0-.13.18c-.273.074-.557.1-.826.192a1.989,1.989,0,0,1-.411.066h-.023A7.726,7.726,0,0,1,45.125,23.277Zm-1.441-9.963a1.406,1.406,0,0,0,.094,1.076.456.456,0,0,0,.069.412,5.109,5.109,0,0,0,.3,2.345.279.279,0,0,0-.086.164c-.3,2.048,2.494,3.436,3.559,1.618.342-.584.161-1.21.244-1.82a26.737,26.737,0,0,0,.122-4.522.4.4,0,0,0-.086-.236c0-.095,0-.189.008-.283a7.233,7.233,0,0,0-.087-2.3c-.041-.236-.1-.5-.167-.768a.241.241,0,0,0,.109-.293c-.186-.613.092-1.235-.074-1.84.006-.14,0-.271-.011-.4a.319.319,0,0,0,0-.1,5.784,5.784,0,0,0-1.961-3.6.9.9,0,0,0-1.607.329,7.638,7.638,0,0,0-.626,2.467c.008.57.006,1.14,0,1.711l-.005.027c0,.013-.017.019-.021.032-.022.111-.044.22-.066.331a.412.412,0,0,0,.032.265.369.369,0,0,0,.007.372.581.581,0,0,1,.042.1c0,.282-.006.564-.008.846a.58.58,0,0,0,.08.021.364.364,0,0,0,.085.224.3.3,0,0,0,.026.136,1.861,1.861,0,0,0-.161.557c-.336.948.128,1.892.013,2.839a.32.32,0,0,0,.158.023A1.609,1.609,0,0,0,43.684,13.314ZM104.451.327l-.005-.008.008.01Z" transform="translate(0.562 0.496)" fill="#fff" stroke="rgba(0,0,0,0)" stroke-miterlimit="10" stroke-width="1"/>
</svg>
