<svg xmlns="http://www.w3.org/2000/svg" width="13.851" height="18" viewBox="0 0 13.851 18">
  <path id="music" d="M20.177,3.384,11.254,5.115a.384.384,0,0,0-.35.346V15.85a1.194,1.194,0,0,1-.1.506,1.153,1.153,0,0,1-.7.55c-.143.048-.338.091-.567.143-1.043.234-2.787.632-2.787,2.241a1.981,1.981,0,0,0,1.8,2.055,2.109,2.109,0,0,0,.307.03h0a5.341,5.341,0,0,0,2.215-.571,2.331,2.331,0,0,0,1.043-2.068V9.541A.343.343,0,0,1,12.4,9.2l6.577-1.328a.346.346,0,0,1,.415.338v5.664a1.24,1.24,0,0,1-.108.58,1.15,1.15,0,0,1-.7.55c-.143.048-.381.091-.61.143-1.043.234-2.787.627-2.787,2.237a1.984,1.984,0,0,0,1.809,2.09,3.576,3.576,0,0,0,.839-.039,4.961,4.961,0,0,0,1.579-.563,2.281,2.281,0,0,0,1.19-2.086V3.717A.343.343,0,0,0,20.177,3.384Z" transform="translate(-6.75 -3.375)" fill="#fff" opacity="0.9"/>
</svg>
