<svg xmlns="http://www.w3.org/2000/svg" width="24" height="24" viewBox="0 0 24 24">
  <path id="spotify_3" d="M12,.563a12,12,0,1,0,12,12A12,12,0,0,0,12,.563Zm4.873,17.656a.923.923,0,0,1-.518-.174c-3.019-1.819-6.532-1.9-10-1.185a3.125,3.125,0,0,1-.576.126.753.753,0,0,1-.765-.765.767.767,0,0,1,.658-.813c3.963-.876,8.013-.8,11.468,1.268a.818.818,0,0,1,.469.8.731.731,0,0,1-.735.745Zm1.3-3.174a1.2,1.2,0,0,1-.6-.2A15.681,15.681,0,0,0,6.034,13.419a1.993,1.993,0,0,1-.576.126.94.94,0,0,1-.939-.939.952.952,0,0,1,.75-1A16.275,16.275,0,0,1,10,10.946a16.938,16.938,0,0,1,8.565,2.2,1.009,1.009,0,0,1,.547.953.938.938,0,0,1-.939.944Zm1.5-3.687a1.113,1.113,0,0,1-.624-.189C15.6,9.113,9.445,8.619,5.458,9.732a2.3,2.3,0,0,1-.624.126A1.117,1.117,0,0,1,3.706,8.716a1.143,1.143,0,0,1,.842-1.156,20.28,20.28,0,0,1,5.685-.735,20.436,20.436,0,0,1,9.939,2.313A1.136,1.136,0,0,1,20.8,10.23,1.121,1.121,0,0,1,19.674,11.358Z" transform="translate(0 -0.563)" fill="#fff"/>
</svg>
